<svg xmlns="http://www.w3.org/2000/svg" width="512" height="512" viewBox="0 0 512 512" role="img">
  <rect width="512" height="512" rx="64" fill="#FFF7E8"/>
  
<circle cx="256" cy="256" r="178" fill="#ECE7FF"/>
<path d="M116 296 C198 234 314 366 396 238" stroke="white" stroke-width="58" fill="none" stroke-linecap="round"/>
<path d="M122 296 C202 244 310 350 390 238" stroke="#FFD166" stroke-width="8" stroke-dasharray="20 16" fill="none" stroke-linecap="round"/>
<path d="M180 210 q-36 40 0 74 q28 24 56 -12 q24 -30 -6 -56 q-22 -20 -44 8" fill="none" stroke="#25C2A0" stroke-width="18" stroke-linecap="round"/>
<path d="M312 302 q-36 40 0 74 q28 24 56 -12 q24 -30 -6 -56 q-22 -20 -44 8" fill="none" stroke="#FF6B6B" stroke-width="18" stroke-linecap="round"/>
<path d="M240 160 L256 112 L272 160" stroke="#6B4EFF" stroke-width="12" stroke-linecap="round"/>

</svg>
